<?xml version="1.0" standalone="no"?>
<!DOCTYPE svg PUBLIC "-//W3C//DTD SVG 20010904//EN"
 "http://www.w3.org/TR/2001/REC-SVG-20010904/DTD/svg10.dtd">
<svg version="1.0" xmlns="http://www.w3.org/2000/svg"
 width="6514.000000pt" height="6514.000000pt" viewBox="0 0 6514.000000 6514.000000"
 preserveAspectRatio="xMidYMid meet">
<metadata>
Created by potrace 1.11, written by Peter Selinger 2001-2013
</metadata>
<g transform="translate(0.000000,6514.000000) scale(0.100000,-0.100000)"
fill="#000000" stroke="none">
<path d="M32518 62435 c-2 -2 -75 -6 -163 -10 -221 -10 -400 -20 -510 -30 -27
-3 -86 -7 -130 -10 -44 -4 -96 -8 -115 -10 -19 -2 -73 -6 -120 -10 -47 -3
-101 -8 -120 -10 -19 -2 -66 -6 -103 -9 -37 -4 -82 -8 -100 -11 -18 -2 -66 -7
-107 -10 -85 -7 -119 -10 -205 -20 -33 -4 -76 -9 -95 -11 -49 -4 -140 -15
-175 -19 -16 -2 -55 -7 -85 -10 -30 -3 -68 -7 -85 -9 -16 -2 -59 -7 -95 -10
-36 -4 -76 -9 -90 -11 -14 -3 -47 -7 -75 -10 -27 -3 -66 -7 -85 -10 -19 -2
-60 -7 -90 -10 -30 -4 -66 -8 -80 -10 -32 -5 -82 -11 -190 -25 -137 -17 -152
-19 -205 -25 -27 -4 -61 -8 -75 -10 -23 -4 -142 -19 -230 -30 -19 -3 -57 -7
-85 -10 -27 -3 -61 -8 -75 -10 -29 -5 -33 -6 -345 -46 -132 -17 -258 -32 -280
-35 -22 -2 -71 -9 -110 -14 -83 -11 -130 -17 -205 -25 -30 -3 -72 -8 -92 -10
-90 -11 -237 -28 -258 -30 -31 -3 -156 -18 -171 -20 -9 -2 -40 -6 -70 -10 -30
-3 -65 -8 -79 -10 -14 -2 -45 -7 -70 -10 -63 -8 -301 -46 -325 -52 -11 -2 -31
-6 -45 -9 -14 -2 -36 -7 -50 -10 -14 -3 -36 -8 -50 -11 -22 -4 -170 -37 -210
-47 -60 -15 -201 -54 -420 -116 -238 -67 -415 -117 -450 -125 -8 -2 -69 -20
-135 -39 -66 -19 -282 -80 -480 -136 -198 -56 -468 -133 -600 -172 -132 -38
-244 -71 -250 -72 -13 -3 -110 -31 -210 -61 -44 -13 -165 -49 -270 -80 -566
-168 -1245 -385 -1770 -565 -197 -68 -443 -155 -480 -170 -11 -4 -103 -38
-205 -75 -102 -38 -198 -74 -215 -81 -30 -13 -196 -77 -205 -79 -8 -2 -43 -16
-75 -30 -16 -7 -82 -33 -145 -58 -306 -119 -934 -387 -1238 -528 -46 -22 -85
-39 -87 -39 -3 0 -135 -62 -360 -168 -148 -70 -714 -353 -850 -425 -252 -133
-356 -190 -575 -312 -323 -181 -311 -174 -535 -308 -248 -149 -467 -289 -740
-472 -305 -206 -481 -330 -829 -588 -36 -27 -345 -263 -366 -280 -8 -7 -35
-28 -60 -47 -25 -19 -47 -37 -50 -40 -3 -3 -50 -41 -105 -85 -55 -44 -109 -87
-120 -96 -11 -9 -87 -72 -170 -140 -82 -68 -152 -126 -155 -129 -3 -3 -48 -41
-100 -85 -52 -44 -97 -82 -100 -85 -3 -3 -39 -34 -80 -69 -78 -66 -175 -151
-270 -236 -111 -100 -246 -221 -300 -270 -30 -27 -60 -54 -66 -60 -10 -9 -212
-196 -274 -255 -50 -47 -325 -308 -395 -375 -349 -334 -896 -895 -1149 -1179
-33 -38 -66 -74 -72 -80 -22 -23 -221 -251 -314 -361 -23 -27 -52 -61 -63 -75
-208 -246 -822 -1005 -1173 -1450 -368 -466 -820 -1051 -1132 -1465 -78 -104
-149 -197 -155 -205 -22 -26 -472 -630 -676 -905 -106 -143 -198 -267 -204
-275 -7 -8 -28 -37 -47 -65 -19 -27 -38 -52 -41 -55 -7 -6 -57 -78 -213 -305
-244 -355 -498 -777 -711 -1180 -67 -126 -261 -515 -295 -590 -12 -27 -35 -77
-50 -110 -214 -465 -398 -937 -621 -1595 -111 -326 -200 -603 -295 -920 -89
-294 -100 -334 -124 -420 -12 -41 -23 -82 -25 -90 -83 -293 -263 -988 -281
-1080 -3 -14 -14 -61 -24 -105 -56 -228 -135 -602 -144 -685 -4 -30 -9 -66
-11 -80 -26 -157 -22 -451 10 -620 3 -14 7 -40 10 -59 19 -114 93 -323 156
-441 40 -74 120 -199 142 -223 7 -6 25 -29 40 -50 16 -20 121 -131 235 -245
212 -213 306 -311 567 -587 224 -238 488 -499 616 -610 117 -102 289 -241 359
-290 16 -11 122 -92 237 -180 504 -389 824 -603 1148 -767 250 -127 555 -237
786 -283 63 -13 442 -125 484 -144 11 -5 49 -19 85 -31 118 -40 614 -232 650
-251 44 -23 64 -42 116 -105 l41 -49 -61 -42 c-64 -44 -67 -45 -246 -58 -41
-3 -100 -8 -130 -10 -30 -3 -100 -7 -155 -10 -55 -4 -120 -8 -145 -10 -25 -2
-90 -7 -145 -10 -55 -3 -127 -8 -160 -10 -245 -17 -356 -24 -425 -30 -25 -2
-88 -6 -140 -10 -52 -3 -111 -8 -130 -10 -19 -3 -69 -7 -110 -10 -41 -3 -91
-7 -110 -10 -19 -2 -61 -7 -93 -10 -161 -14 -224 -21 -362 -40 -16 -2 -57 -6
-90 -10 -33 -4 -71 -8 -85 -11 -14 -2 -83 -10 -155 -19 -71 -9 -137 -18 -145
-20 -8 -2 -35 -6 -60 -9 -68 -8 -253 -44 -364 -72 -428 -108 -745 -304 -965
-599 -99 -133 -305 -452 -447 -693 -27 -46 -57 -95 -66 -110 -9 -15 -23 -38
-31 -52 -51 -92 -262 -448 -288 -487 -41 -62 -120 -138 -156 -150 -89 -31
-198 22 -404 197 -45 38 -295 252 -464 396 -27 23 -86 73 -130 109 -44 37 -91
77 -105 89 -69 59 -447 372 -535 441 -55 44 -102 82 -105 86 -3 3 -90 72 -195
153 -104 81 -197 152 -205 159 -17 13 -172 129 -265 197 -131 96 -222 212
-250 319 -13 52 -12 146 4 236 13 77 60 334 65 360 2 11 7 43 10 70 4 28 9 57
11 65 2 8 6 42 10 75 3 33 8 67 10 75 2 8 6 46 10 83 3 37 8 76 10 86 23 118
22 676 -1 795 -2 10 -6 44 -10 75 -14 121 -53 281 -82 338 -16 32 -61 106 -99
164 l-70 106 -81 -121 c-88 -131 -118 -191 -127 -252 -4 -21 -8 -309 -10 -639
-4 -648 -8 -759 -25 -826 -12 -48 -101 -322 -106 -328 -2 -2 -34 14 -71 37
-37 22 -86 50 -108 62 -119 66 -185 110 -287 193 -62 50 -118 96 -124 101 -6
6 -40 36 -75 67 -35 31 -76 67 -90 80 -229 209 -410 359 -464 386 -42 21 -147
48 -225 58 -25 4 -64 11 -88 16 -24 5 -47 7 -51 5 -4 -3 0 -43 10 -88 10 -46
21 -96 23 -113 8 -46 34 -115 62 -163 34 -58 172 -195 274 -272 93 -70 205
-163 260 -216 57 -54 218 -279 208 -289 -7 -7 -309 -8 -343 -1 -16 3 -41 8
-55 11 -14 3 -56 12 -95 20 -58 12 -128 27 -276 60 -39 8 -377 77 -399 81 -14
3 -50 9 -80 14 -30 6 -83 13 -118 16 -57 6 -66 4 -105 -21 -59 -40 -172 -127
-170 -132 4 -14 119 -136 139 -150 21 -13 69 -26 179 -48 11 -3 40 -9 65 -15
25 -5 59 -12 75 -15 64 -12 235 -44 315 -60 14 -3 50 -9 80 -15 30 -6 64 -12
75 -14 63 -12 244 -46 265 -50 14 -2 63 -12 110 -21 47 -9 96 -19 110 -21 14
-3 63 -14 110 -24 47 -10 126 -26 175 -34 50 -9 101 -18 115 -21 14 -3 41 -8
60 -11 195 -31 428 -98 538 -153 34 -17 136 -84 227 -148 92 -65 177 -125 188
-133 43 -29 372 -274 377 -280 3 -3 21 -17 40 -30 19 -13 37 -27 40 -30 3 -3
23 -19 45 -35 22 -16 47 -35 55 -42 8 -6 99 -79 201 -161 161 -129 321 -260
409 -335 368 -316 545 -476 739 -667 333 -330 386 -506 265 -883 -35 -109
-163 -439 -302 -782 -84 -206 -155 -417 -176 -525 -3 -14 -7 -36 -11 -50 -18
-85 -24 -240 -12 -354 23 -222 174 -469 387 -635 88 -68 105 -99 160 -291 85
-291 148 -464 236 -647 307 -636 771 -1046 1424 -1260 95 -31 216 -64 280 -77
58 -12 70 -15 107 -34 29 -15 174 -123 211 -157 6 -5 -204 -123 -248 -138 -25
-9 -151 -43 -281 -76 -496 -125 -815 -252 -1084 -433 -108 -73 -231 -175 -304
-254 -70 -75 -191 -228 -191 -242 0 -6 -4 -12 -9 -14 -7 -2 -241 -396 -338
-568 -74 -130 -423 -716 -456 -765 -22 -33 -82 -116 -132 -185 -51 -69 -110
-152 -131 -185 -85 -135 -231 -472 -312 -725 -56 -176 -137 -500 -156 -624 -4
-21 -8 -48 -11 -60 -5 -24 -9 -44 -30 -176 -9 -52 -18 -112 -20 -135 -3 -22
-10 -71 -15 -110 -6 -38 -12 -95 -15 -125 -3 -30 -8 -66 -10 -80 -2 -14 -7
-59 -10 -100 -3 -41 -8 -97 -11 -125 -3 -27 -7 -75 -9 -105 -12 -148 -15 -189
-20 -240 -13 -146 -21 -248 -30 -390 -3 -52 -8 -113 -10 -135 -22 -218 -22
-942 0 -1130 2 -16 6 -62 9 -101 4 -39 8 -80 10 -90 2 -11 7 -46 10 -79 4 -33
9 -67 11 -75 2 -8 6 -35 9 -60 8 -59 13 -86 37 -205 137 -678 432 -1242 855
-1635 82 -76 122 -111 169 -145 22 -17 46 -36 54 -43 54 -52 290 -194 456
-275 200 -98 304 -136 1175 -427 118 -39 222 -74 230 -77 8 -3 20 -7 25 -9 6
-1 72 -23 149 -49 309 -102 955 -300 1066 -326 19 -4 114 -28 210 -54 96 -25
247 -61 335 -81 88 -19 188 -41 222 -49 34 -8 79 -17 100 -21 21 -3 54 -9 73
-14 30 -8 359 -71 445 -86 17 -2 77 -13 135 -24 58 -10 119 -21 135 -23 64
-10 473 -77 525 -87 66 -11 100 -17 160 -24 25 -3 56 -8 70 -11 22 -5 112 -19
255 -40 22 -4 54 -8 70 -11 17 -2 41 -6 55 -9 14 -2 42 -7 63 -10 20 -3 54 -8
75 -11 20 -3 51 -7 67 -10 17 -2 41 -6 55 -9 14 -2 45 -7 70 -10 25 -3 54 -7
65 -9 29 -5 101 -17 128 -21 71 -10 113 -16 141 -20 17 -3 56 -10 86 -15 30
-5 73 -12 95 -15 23 -3 52 -7 65 -10 25 -5 65 -11 140 -21 25 -3 54 -7 65 -9
56 -9 385 -56 420 -60 49 -7 179 -24 220 -30 17 -3 84 -12 150 -20 66 -9 131
-18 145 -20 14 -2 45 -6 70 -9 25 -3 61 -8 80 -10 19 -3 71 -10 115 -16 44 -5
94 -12 110 -14 29 -5 51 -8 165 -21 30 -4 66 -9 80 -11 14 -2 61 -8 105 -14
44 -6 98 -12 120 -15 22 -3 56 -8 75 -10 19 -2 58 -7 85 -10 28 -4 61 -8 75
-10 14 -2 66 -9 115 -15 50 -6 105 -13 123 -16 17 -2 47 -6 65 -8 17 -3 55 -8
82 -11 28 -3 75 -10 105 -15 30 -5 75 -11 100 -14 114 -14 137 -17 160 -21 14
-2 75 -11 135 -20 162 -23 178 -25 205 -30 14 -2 61 -9 105 -15 89 -12 84 -11
280 -40 77 -12 156 -23 175 -26 19 -2 50 -7 69 -10 19 -3 53 -8 75 -10 23 -2
64 -9 91 -14 28 -5 75 -12 105 -15 85 -10 162 -21 210 -30 14 -2 45 -7 70 -10
49 -5 174 -21 230 -29 19 -3 78 -10 130 -17 52 -6 102 -12 110 -14 8 -1 49 -6
90 -10 41 -4 82 -9 90 -10 8 -1 49 -6 90 -10 41 -4 86 -9 100 -11 14 -1 54 -5
90 -9 75 -6 152 -13 228 -20 124 -12 162 -15 242 -21 47 -3 101 -7 120 -9 19
-2 78 -7 130 -10 52 -3 115 -8 140 -10 51 -5 158 -13 270 -20 41 -3 100 -7
130 -10 30 -2 89 -7 130 -10 152 -11 348 -27 385 -31 17 -1 104 -5 195 -9 374
-13 389 -14 490 -48 88 -30 144 -84 158 -152 16 -79 9 -174 -33 -415 l-23
-135 2 -1635 c1 -899 4 -1644 8 -1655 3 -11 9 -58 13 -105 4 -47 9 -93 10
-102 2 -9 7 -48 10 -85 4 -37 8 -79 10 -93 2 -14 7 -56 10 -95 3 -38 8 -81 10
-95 2 -14 7 -54 10 -90 3 -36 8 -76 10 -90 3 -14 7 -52 10 -85 4 -52 9 -100
30 -290 2 -22 7 -67 10 -100 3 -33 8 -76 10 -95 3 -19 7 -60 10 -90 8 -76 14
-137 20 -190 9 -87 14 -136 20 -205 4 -38 8 -81 10 -95 2 -14 7 -61 10 -105 4
-44 10 -109 15 -144 5 -35 8 -95 7 -135 -2 -61 -8 -84 -47 -164 l-44 -94 -53
59 c-58 64 -108 130 -279 373 -268 378 -494 650 -779 935 -151 152 -196 193
-315 296 -340 292 -782 573 -1056 672 -64 23 -197 58 -271 71 -74 14 -172 20
-303 20 -174 0 -261 -10 -410 -46 -297 -72 -532 -200 -725 -393 -116 -115
-191 -222 -269 -386 -51 -107 -59 -118 -106 -147 -28 -18 -57 -32 -64 -32 -6
0 -16 -4 -21 -9 -12 -10 -89 -29 -147 -36 -100 -12 -127 -18 -196 -41 -221
-74 -362 -196 -428 -371 -53 -139 -27 -298 94 -583 121 -286 289 -514 476
-649 119 -86 508 -343 624 -412 15 -9 159 -96 320 -193 162 -97 295 -176 297
-176 2 0 56 -31 121 -70 64 -38 118 -70 120 -70 1 0 49 -28 106 -61 57 -34
119 -70 138 -81 19 -11 148 -87 285 -170 138 -82 259 -155 270 -161 151 -90
226 -150 440 -350 l60 -56 -30 -2 c-16 0 -41 -2 -55 -4 -14 -1 -61 -6 -104
-10 -44 -4 -87 -8 -95 -10 -9 -1 -50 -6 -91 -9 -66 -6 -136 -16 -220 -32 -14
-2 -41 -7 -60 -10 -19 -3 -53 -9 -75 -14 -22 -5 -56 -12 -75 -15 -19 -3 -152
-35 -295 -70 -216 -53 -385 -93 -465 -110 -8 -1 -33 -8 -55 -13 -22 -6 -51
-13 -65 -16 -91 -16 -490 -115 -690 -171 -611 -171 -913 -326 -1198 -615 -231
-233 -410 -546 -546 -955 -52 -156 -150 -556 -171 -701 -4 -21 -8 -46 -10 -54
-2 -8 -7 -37 -10 -65 -4 -27 -9 -61 -12 -75 -12 -60 -11 -388 1 -465 47 -279
150 -452 365 -608 257 -188 669 -390 1003 -491 120 -36 251 -71 303 -80 17 -3
41 -8 55 -11 76 -17 182 -35 235 -41 33 -3 62 -8 65 -9 3 -2 48 -7 100 -11
185 -15 618 -9 765 11 17 2 59 7 95 10 75 6 125 12 230 26 41 6 91 13 110 15
37 5 105 15 130 19 8 1 37 6 63 9 27 4 59 9 70 12 12 2 49 9 82 14 33 6 74 12
90 15 42 8 477 96 495 100 8 2 78 18 155 35 77 18 147 33 155 35 8 2 116 28
240 59 124 30 275 66 335 81 61 14 133 32 160 40 48 14 444 111 495 121 99 20
436 113 585 162 421 139 872 348 1250 580 28 17 70 43 95 58 111 67 360 238
518 357 768 573 1154 1006 1479 1659 40 81 73 149 73 152 0 2 13 33 29 68 15
35 38 90 51 123 12 33 28 74 35 90 64 145 224 714 260 925 3 19 10 53 15 75
11 50 66 382 75 450 3 28 8 64 11 80 17 109 40 341 38 386 -10 275 -37 381
-267 1054 -30 88 -73 219 -97 290 -36 112 -67 195 -192 520 -85 220 -161 459
-192 605 -24 111 -25 117 -41 221 -44 286 -50 418 -49 999 0 450 4 697 19
1155 9 264 15 463 20 640 4 105 8 246 10 315 15 484 16 799 3 841 -9 30 -13
108 -13 251 0 180 2 207 15 203 8 -2 49 -7 90 -11 83 -7 97 -9 190 -18 81 -8
139 -14 210 -21 89 -9 153 -15 190 -20 19 -3 64 -7 100 -10 36 -4 76 -8 90
-10 14 -2 57 -7 95 -10 39 -3 84 -7 100 -9 17 -3 64 -7 105 -11 41 -3 86 -8
100 -10 14 -2 57 -6 95 -10 39 -3 86 -8 105 -10 39 -5 114 -12 205 -20 33 -3
80 -8 105 -10 73 -9 121 -14 195 -20 39 -4 84 -8 100 -10 17 -2 62 -6 100 -10
39 -3 84 -8 100 -10 33 -4 106 -12 200 -20 33 -3 80 -7 105 -10 64 -7 135 -13
210 -20 36 -3 81 -8 100 -10 19 -2 64 -7 100 -10 36 -4 76 -8 90 -10 14 -2 61
-6 105 -10 44 -3 91 -8 105 -10 14 -2 65 -6 113 -10 48 -3 96 -8 105 -10 9 -1
55 -6 102 -10 47 -3 99 -8 115 -10 17 -1 62 -5 100 -9 39 -4 86 -9 105 -11 19
-2 71 -7 115 -10 44 -3 100 -8 125 -10 25 -3 72 -7 105 -10 33 -2 87 -7 120
-10 64 -6 123 -10 250 -20 44 -3 98 -7 120 -10 22 -2 81 -7 130 -10 50 -4 106
-8 125 -10 106 -10 688 -42 905 -50 50 -2 162 -6 250 -10 287 -11 377 -14 610
-20 127 -3 318 -8 425 -12 107 -3 1631 -7 3385 -8 1755 -2 3316 -3 3470 -4
271 -1 414 2 540 14 33 3 96 7 140 10 44 3 100 7 125 10 25 2 81 7 125 10 44
4 96 8 115 10 19 2 76 7 125 11 50 3 99 8 109 10 10 2 58 6 105 9 47 4 97 8
111 10 14 2 54 7 90 10 204 18 264 23 330 30 25 3 72 7 105 10 33 3 84 8 113
10 106 10 168 16 202 20 19 2 64 7 100 10 36 3 76 8 90 10 14 3 48 7 75 10
105 10 161 16 185 20 14 2 48 6 75 9 28 3 91 10 140 16 50 6 110 13 135 16 25
3 79 9 120 14 41 5 100 12 130 15 30 3 71 8 90 10 19 2 58 6 85 9 28 3 70 8
95 10 25 3 77 8 115 11 39 4 84 9 100 11 17 2 74 4 127 4 123 1 192 -18 251
-70 62 -55 77 -110 84 -297 12 -367 5 -1120 -11 -1333 -2 -19 -6 -84 -11 -145
-4 -60 -8 -117 -10 -125 -1 -8 -6 -44 -10 -80 -14 -135 -17 -158 -36 -280 -25
-157 -26 -165 -44 -250 -8 -38 -17 -83 -20 -98 -21 -122 -178 -649 -205 -687
-3 -5 -15 -32 -25 -60 -10 -27 -29 -73 -41 -102 -25 -54 -129 -361 -138 -403
-2 -14 -14 -63 -25 -110 -11 -47 -22 -96 -25 -110 -3 -14 -14 -72 -26 -130
-21 -106 -23 -121 -40 -220 -5 -30 -12 -71 -15 -90 -21 -124 -22 -194 -12
-633 2 -103 1 -209 -3 -235 -5 -26 -11 -69 -14 -96 -4 -27 -9 -52 -11 -55 -1
-3 -6 -24 -9 -46 -3 -22 -13 -74 -21 -115 -8 -41 -17 -91 -20 -110 -3 -19 -17
-87 -30 -150 -13 -63 -26 -126 -29 -140 -2 -14 -23 -113 -46 -220 -75 -353
-121 -574 -131 -625 -5 -27 -11 -59 -13 -70 -4 -18 -41 -209 -51 -260 -6 -27
-63 -371 -69 -415 -24 -164 -28 -512 -8 -650 19 -126 44 -233 60 -252 23 -28
115 -36 402 -38 151 -1 293 -3 315 -5 22 -2 65 -6 95 -9 30 -3 134 -25 230
-50 151 -39 323 -74 450 -92 19 -2 44 -7 55 -9 11 -2 49 -7 85 -10 36 -4 76
-8 90 -11 14 -2 57 -6 95 -9 39 -3 84 -8 100 -10 32 -4 158 -13 290 -20 128
-6 518 -15 965 -20 454 -6 518 -8 920 -30 78 -4 328 -12 700 -21 341 -8 504
-18 736 -45 94 -11 181 -22 195 -24 13 -3 98 -18 189 -35 91 -16 179 -32 195
-35 17 -3 104 -16 195 -29 155 -23 193 -28 338 -42 31 -3 73 -7 92 -9 218 -26
869 -26 1090 0 14 2 59 6 100 10 41 4 84 9 95 11 11 2 43 6 70 10 28 3 111 16
185 29 755 131 1415 392 2085 823 256 165 409 324 517 537 46 90 103 251 113
316 4 24 8 46 10 50 18 27 26 344 13 464 -61 543 -378 945 -913 1157 -49 20
-157 54 -240 77 -82 23 -179 51 -215 61 -219 65 -510 136 -595 146 -22 3 -46
7 -53 9 -7 2 -40 7 -75 10 -34 4 -75 8 -92 10 -149 20 -331 22 -1310 14 -567
-5 -785 9 -1089 72 -271 56 -576 171 -755 283 -22 14 -44 26 -49 26 -5 0 -17
9 -27 20 -10 11 -22 20 -28 20 -8 0 -59 37 -116 85 -13 11 -37 40 -54 65 -26
37 -32 55 -31 100 0 81 38 138 175 264 35 32 255 249 489 480 420 417 511 498
682 604 113 71 260 140 333 157 83 20 281 23 370 6 33 -6 73 -14 89 -17 153
-28 345 -135 400 -223 67 -106 95 -320 61 -466 -57 -248 -252 -433 -635 -604
-84 -37 -86 -39 -255 -111 -66 -29 -148 -67 -182 -86 -143 -78 -235 -136 -227
-144 40 -36 180 -143 205 -155 35 -19 91 -26 194 -25 249 1 520 93 775 263
107 72 154 110 250 207 189 188 290 357 344 575 24 98 30 144 30 260 1 170
-24 278 -92 410 -143 274 -459 470 -837 520 -28 3 -64 9 -80 11 -17 3 -172 6
-345 7 -274 2 -322 5 -371 21 -76 24 -147 80 -187 146 -38 63 -49 99 -58 190
-3 36 -17 106 -29 157 -68 269 -232 454 -648 732 -60 40 -136 86 -170 101
-219 102 -429 60 -595 -118 -69 -73 -250 -343 -342 -510 -8 -15 -18 -28 -22
-30 -5 -2 -8 -7 -8 -12 0 -14 -206 -351 -249 -408 -14 -17 -42 -43 -63 -57
-53 -35 -125 -75 -136 -75 -8 0 -38 62 -73 151 -18 46 -19 120 -5 249 4 30 9
78 12 105 3 28 7 66 9 85 2 19 7 60 10 90 3 30 8 66 10 80 2 14 7 52 10 85 3
33 8 71 10 85 2 14 9 69 14 122 6 54 13 112 16 130 5 41 13 107 20 173 3 28
10 88 16 135 27 231 39 359 54 590 7 111 14 205 21 300 3 47 7 103 9 125 4 57
15 154 30 273 10 75 20 113 39 145 64 106 125 148 261 177 131 28 127 27 170
34 20 4 40 8 44 10 3 2 22 7 41 10 19 3 60 10 90 16 195 39 255 51 280 55 14
2 81 15 150 29 69 13 166 32 215 41 50 9 133 25 185 35 52 11 111 22 130 25
19 3 58 10 85 15 28 6 64 12 80 14 17 2 80 14 140 25 113 22 142 27 198 36 17
3 57 10 87 15 30 5 69 11 85 14 117 17 149 23 173 30 9 3 40 7 67 11 28 3 91
13 140 21 110 18 128 21 185 29 25 3 52 8 60 10 14 4 31 6 128 21 20 3 62 9
92 14 30 5 73 12 95 15 35 5 296 47 380 61 17 3 41 7 55 9 14 2 81 13 150 25
69 12 136 23 150 25 21 3 67 11 235 40 17 3 53 10 80 15 28 5 66 12 85 15 19
3 127 24 240 46 113 23 216 43 230 46 14 2 117 25 230 49 113 25 216 48 229
50 14 3 28 7 31 9 4 2 21 7 39 10 18 3 72 15 119 26 48 11 96 22 107 25 103
20 1096 256 1425 339 118 30 226 56 240 59 23 4 281 70 635 161 131 34 703
187 1030 275 404 109 922 263 1255 372 199 66 542 183 575 197 11 5 49 19 85
31 36 12 74 26 85 30 11 5 227 84 480 176 253 92 496 180 540 196 126 47 347
126 510 183 240 85 588 206 615 215 335 111 969 351 1210 457 366 162 632 297
836 426 201 128 490 390 625 567 180 237 298 481 363 753 26 107 51 227 61
287 3 19 7 46 10 60 2 14 7 43 9 65 3 22 10 76 15 120 13 104 19 164 26 250 3
39 8 90 10 115 7 65 14 153 20 245 3 44 7 99 10 122 2 24 7 80 10 125 3 46 8
94 10 108 2 14 6 55 10 92 3 37 8 75 10 86 2 10 6 41 10 68 3 27 13 77 21 109
8 33 16 67 16 75 2 24 153 319 260 507 106 186 245 455 290 558 78 183 148
435 173 625 3 25 8 52 10 60 26 96 26 743 1 877 -2 10 -7 47 -10 83 -4 36 -9
76 -11 90 -2 14 -7 45 -10 70 -11 80 -52 317 -80 460 -34 169 -82 400 -101
490 -14 63 -38 176 -54 250 -54 251 -188 866 -196 905 -3 11 -9 40 -14 65 -5
25 -18 86 -29 135 -21 98 -79 366 -86 399 -2 12 -13 64 -25 116 -11 52 -32
145 -44 205 -13 61 -38 175 -55 255 -17 80 -34 159 -37 175 -3 17 -9 46 -14
65 -5 19 -16 68 -25 108 -8 39 -22 102 -30 140 -8 37 -17 79 -19 94 -3 15 -7
31 -9 35 -3 5 -8 24 -11 43 -3 19 -16 87 -30 150 -14 63 -27 126 -29 140 -3
14 -12 55 -21 91 -8 37 -17 78 -20 90 -2 13 -21 101 -41 194 -20 94 -38 181
-41 195 -2 14 -11 54 -19 90 -15 70 -91 428 -99 470 -3 14 -21 102 -40 195
-19 94 -38 186 -41 205 -3 19 -17 90 -31 157 -13 67 -26 134 -28 150 -2 15
-16 97 -30 181 -15 83 -28 164 -30 180 -2 15 -9 60 -15 100 -32 210 72 454
268 626 32 28 73 65 92 81 138 123 370 290 571 411 235 143 374 192 574 201
145 7 187 -6 270 -85 175 -165 275 -241 439 -334 132 -75 326 -154 426 -173
12 -2 36 -9 53 -14 17 -5 51 -13 76 -16 25 -4 52 -9 60 -10 109 -20 410 -25
530 -9 115 15 188 9 320 -26 212 -56 303 -43 349 53 25 52 31 89 33 181 2 187
-54 296 -167 323 -55 13 -167 6 -274 -18 -62 -14 -199 -18 -238 -7 -27 7 -38
5 -61 -12 -28 -21 -31 -21 -118 -6 -79 13 -137 22 -199 31 -260 38 -484 94
-610 155 -159 76 -311 264 -299 369 7 60 66 153 149 236 139 138 213 182 925
553 397 206 401 208 620 330 254 141 246 132 310 368 40 146 39 136 15 140
-282 48 -274 49 -487 -77 -95 -56 -228 -138 -296 -181 -67 -43 -127 -78 -132
-78 -6 0 -10 -4 -10 -8 0 -5 -12 -15 -27 -23 -16 -8 -97 -58 -181 -111 -84
-54 -155 -98 -158 -98 -3 0 -10 -5 -17 -10 -18 -16 -163 -106 -232 -145 -37
-20 -95 -41 -153 -53 l-92 -20 4 24 c3 13 10 52 16 87 16 86 49 140 250 407
145 192 230 320 289 430 l56 105 0 95 c-1 52 -4 111 -7 130 -4 19 -14 80 -24
135 -9 55 -18 102 -20 103 -5 7 -209 -153 -253 -198 -47 -47 -144 -192 -302
-448 -115 -186 -159 -258 -179 -288 -45 -70 -196 -310 -200 -319 -3 -5 -12
-21 -21 -35 -9 -14 -54 -86 -99 -160 -96 -156 -246 -381 -296 -442 -19 -24
-37 -48 -42 -53 -34 -47 -123 -146 -202 -226 -188 -188 -386 -341 -755 -584
-132 -87 -292 -192 -355 -234 -63 -42 -119 -78 -125 -80 -5 -2 -14 -8 -20 -15
-18 -21 -139 -95 -198 -121 -119 -52 -228 -40 -302 33 -20 20 -69 84 -108 142
-38 58 -90 130 -114 160 -66 82 -219 235 -298 299 -38 31 -72 59 -75 62 -3 4
-61 43 -130 89 -251 164 -592 312 -1005 435 -49 15 -146 44 -215 65 -69 22
-195 60 -280 85 -232 70 -453 135 -470 140 -8 2 -96 27 -195 55 -402 113 -912
235 -1106 264 -20 3 -42 8 -50 10 -11 4 -149 26 -254 41 -11 2 -56 8 -100 14
-114 17 -133 19 -195 26 -53 5 -78 8 -165 19 -22 3 -74 8 -115 11 -41 3 -88 8
-105 10 -16 2 -66 7 -110 10 -44 3 -102 8 -130 10 -69 6 -190 14 -320 20 -265
13 -436 24 -475 30 -52 7 -162 18 -320 30 -41 3 -93 8 -115 10 -22 2 -87 7
-145 10 -58 4 -121 8 -140 10 -19 2 -87 7 -150 10 -63 4 -144 8 -180 10 -36 2
-148 7 -250 10 -102 4 -206 8 -231 9 -42 2 -54 8 -118 65 -71 63 -82 77 -58
78 6 0 48 7 92 16 44 9 91 19 105 21 14 3 36 8 50 11 14 3 39 7 55 10 17 3 41
8 55 10 55 11 169 32 217 41 16 2 51 9 78 14 67 12 288 44 383 56 26 3 58 7
72 9 14 2 51 7 83 10 32 4 66 8 75 10 9 1 46 6 82 10 36 4 73 9 82 10 9 2 48
7 85 10 37 4 75 8 83 10 8 3 58 9 110 15 52 6 106 12 120 15 14 2 52 6 85 10
33 3 74 8 90 10 32 5 174 23 240 31 22 2 56 6 75 9 19 3 54 7 78 10 23 3 59 7
81 10 21 3 56 8 77 10 22 3 50 7 64 10 14 2 49 7 79 10 30 4 61 8 70 10 9 1
41 6 71 10 30 3 66 8 80 10 58 9 228 34 270 40 25 3 83 12 130 20 47 7 105 16
130 20 25 3 52 8 60 10 8 2 35 7 60 10 42 5 55 8 120 20 14 3 39 8 55 10 536
93 940 194 1370 342 167 57 262 91 300 108 17 7 50 21 75 30 25 10 59 24 75
31 682 293 1171 579 1715 1003 118 92 156 123 204 166 6 6 43 37 81 70 128
110 159 139 385 365 348 346 519 551 690 823 226 360 353 730 394 1147 13 128
14 506 2 575 -3 17 -10 75 -16 130 -6 55 -12 112 -15 125 -2 14 -9 54 -15 90
-5 36 -12 76 -15 90 -3 14 -10 50 -16 80 -6 30 -12 60 -13 65 -1 6 -8 37 -15
70 -7 33 -31 130 -53 215 -22 85 -41 162 -43 170 -2 8 -20 71 -40 140 -20 69
-37 132 -39 140 -2 8 -38 134 -79 280 -87 305 -131 478 -182 710 -53 246 -115
474 -175 650 -44 130 -113 318 -131 357 -10 23 -19 44 -19 47 0 11 -138 313
-200 437 -205 410 -201 404 -1251 1982 -66 99 -119 183 -119 187 0 5 -3 10 -7
12 -7 2 -205 294 -238 350 -31 51 -511 749 -710 1033 -144 205 -428 598 -675
935 -83 113 -183 250 -222 305 -70 97 -543 730 -561 750 -4 6 -157 208 -338
450 -181 242 -337 451 -347 465 -11 14 -151 201 -313 415 -161 215 -297 395
-301 400 -5 6 -115 150 -246 320 -343 449 -616 797 -766 975 -120 142 -246
290 -287 335 -20 22 -62 69 -94 105 -403 452 -986 1014 -1415 1365 -47 38 -87
72 -90 75 -14 15 -264 211 -405 317 -220 165 -312 230 -900 635 -44 30 -179
122 -300 205 -121 82 -278 190 -350 238 -71 49 -341 230 -600 402 -258 172
-475 318 -482 323 -7 6 -14 10 -16 10 -2 0 -88 55 -190 123 -236 155 -351 229
-920 592 -43 28 -146 95 -230 149 -769 502 -836 545 -1207 769 -453 274 -914
517 -1191 627 -26 10 -66 28 -90 38 -24 11 -114 48 -199 82 -207 83 -459 188
-780 325 -146 62 -368 156 -495 210 -126 53 -248 105 -270 115 -22 10 -96 41
-165 70 -69 29 -150 63 -180 76 -139 59 -479 197 -610 249 -80 31 -154 61
-165 65 -51 23 -387 151 -595 227 -475 173 -1293 420 -1610 487 -57 12 -120
26 -210 46 -156 34 -524 102 -675 124 -23 4 -52 8 -65 11 -14 3 -36 7 -50 9
-14 3 -43 8 -65 11 -22 4 -60 10 -85 15 -25 4 -85 15 -135 24 -187 34 -311 57
-350 66 -22 5 -56 12 -75 15 -30 5 -256 48 -315 61 -58 12 -173 35 -192 38
-12 3 -115 23 -228 46 -113 23 -214 43 -223 45 -9 2 -51 10 -92 19 -41 8 -88
17 -105 20 -16 3 -39 8 -50 10 -16 4 -285 57 -465 91 -14 3 -36 8 -50 11 -25
5 -108 21 -145 28 -11 2 -40 7 -65 11 -59 10 -74 13 -139 26 -30 6 -64 12 -75
14 -297 42 -311 44 -476 60 -30 3 -75 7 -100 10 -25 2 -79 7 -120 10 -41 3
-97 8 -125 10 -27 2 -81 7 -120 10 -82 7 -104 9 -270 29 -16 2 -55 7 -85 11
-30 3 -62 8 -70 10 -8 2 -31 7 -50 10 -19 3 -48 8 -65 11 -16 3 -46 9 -65 14
-19 5 -48 11 -65 14 -16 2 -55 9 -85 15 -30 6 -68 13 -85 16 -16 2 -41 7 -55
10 -14 3 -38 7 -55 9 -16 2 -77 11 -135 19 -58 9 -130 18 -160 22 -30 3 -71 7
-90 9 -19 3 -69 7 -110 10 -41 4 -104 9 -140 12 -36 3 -90 8 -120 10 -63 5
-947 14 -952 9z m25956 -31260 c25 -24 44 -51 50 -71 6 -21 6 -21 -51 -10 -32
7 -82 12 -110 12 -29 -1 -53 2 -53 5 0 4 17 39 37 78 l36 72 41 -38 c22 -21
45 -43 50 -48z m633 -2515 c24 -73 25 -119 9 -220 -3 -14 -7 -46 -10 -72 -11
-87 -18 -143 -22 -163 -2 -11 -7 -40 -10 -65 -15 -125 -35 -215 -54 -246 -29
-46 -68 -75 -94 -69 -11 2 -95 21 -186 40 -91 20 -259 58 -375 86 -203 49
-225 54 -263 63 -9 2 -36 9 -60 16 l-43 11 21 32 c11 18 30 48 41 68 15 25 46
51 102 84 149 87 371 217 417 242 25 14 95 53 155 88 61 34 151 84 200 110 50
26 99 54 110 62 11 7 24 12 29 10 5 -2 20 -37 33 -77z m-13594 -15376 c116
-59 225 -143 367 -284 212 -211 225 -232 254 -430 21 -141 19 -171 -18 -285
-46 -137 -56 -161 -131 -310 -131 -259 -309 -483 -558 -702 -118 -105 -297
-246 -382 -303 -13 -8 -94 -64 -181 -125 -204 -141 -270 -163 -355 -119 -111
57 -194 327 -194 629 1 248 45 425 174 700 39 81 331 571 447 747 158 242 413
491 517 507 4 0 31 -11 60 -25z m-3728 -727 c11 -2 36 -7 55 -11 19 -3 46 -8
60 -11 143 -29 265 -50 340 -59 25 -3 56 -8 70 -11 14 -3 48 -7 75 -10 28 -3
57 -7 65 -10 8 -2 44 -7 80 -10 36 -4 76 -8 90 -10 44 -7 123 -14 205 -20 44
-3 105 -8 135 -11 30 -2 106 -6 168 -9 155 -7 242 -18 342 -42 354 -85 457
-320 316 -721 -24 -70 -33 -90 -89 -212 -63 -136 -170 -289 -283 -407 -60 -63
-94 -93 -182 -164 -151 -124 -458 -266 -652 -303 -14 -3 -50 -10 -80 -16 -163
-32 -437 -32 -611 0 -30 5 -146 32 -259 59 -113 28 -245 59 -293 70 -48 11
-112 31 -141 44 -54 25 -120 83 -145 127 -43 77 -52 213 -20 338 12 47 22 91
24 97 1 5 7 30 14 55 7 25 15 52 17 60 5 23 51 187 74 265 11 39 22 77 24 85
9 33 79 258 97 315 11 33 22 69 24 79 3 11 25 83 50 161 32 103 55 156 82 193
21 29 42 52 46 52 5 0 6 -3 4 -7 -6 -10 -139 -435 -207 -663 -18 -58 -34 -112
-37 -120 -3 -8 -7 -20 -9 -27 -1 -7 -9 -34 -18 -60 -9 -26 -17 -57 -19 -68 -1
-11 -5 -24 -8 -30 -6 -9 -14 -39 -24 -85 -2 -8 -10 -44 -19 -80 -8 -36 -17
-78 -20 -95 -3 -16 -8 -41 -12 -55 -14 -59 -13 -256 1 -309 41 -157 156 -234
436 -290 81 -17 154 -28 224 -36 127 -13 199 -17 320 -18 121 0 322 10 335 18
3 2 30 6 60 10 30 4 58 9 61 11 3 2 19 6 35 8 65 12 82 17 179 47 157 50 358
153 444 228 13 12 27 21 31 21 15 0 177 166 228 233 85 112 199 325 207 387 0
3 5 19 12 35 46 121 58 187 58 320 0 97 -3 116 -26 165 -35 74 -90 126 -174
166 -71 33 -208 77 -278 88 -21 3 -71 13 -110 21 -40 8 -94 17 -122 20 -27 4
-57 8 -66 11 -9 3 -36 7 -59 9 -24 2 -59 7 -79 9 -34 5 -134 17 -246 31 -27 3
-63 8 -80 10 -54 7 -118 14 -230 25 -60 6 -121 12 -135 15 -14 2 -56 7 -95 10
-38 3 -83 8 -100 10 -16 3 -59 7 -95 10 -36 4 -78 8 -93 10 -15 2 -60 6 -98
10 -39 4 -92 10 -117 14 l-47 7 45 17 c34 12 68 16 135 13 50 -2 99 -6 110 -9z
m-24978 -1156 c231 -52 426 -152 663 -340 321 -255 538 -449 784 -700 346
-354 591 -659 821 -1022 136 -214 184 -323 219 -494 24 -117 27 -154 31 -300
9 -399 -110 -392 -800 52 -77 49 -221 145 -320 212 -343 234 -732 490 -1165
766 -239 153 -457 292 -485 310 -27 18 -97 62 -155 98 -58 37 -109 70 -115 74
-5 5 -107 71 -225 147 -118 76 -235 155 -260 175 -115 91 -228 230 -257 314
-16 46 -9 74 45 182 76 153 200 305 304 377 144 97 346 163 538 175 52 3 96 6
97 7 9 7 208 -17 280 -33z m4608 -905 c50 -4 115 -11 145 -16 30 -5 73 -11 95
-14 35 -5 77 -12 175 -31 50 -10 206 -48 225 -56 11 -4 38 -13 60 -20 64 -19
138 -74 165 -121 31 -55 34 -132 7 -207 -23 -65 -102 -217 -161 -311 -45 -72
-180 -264 -205 -290 -9 -9 -53 -60 -99 -112 -46 -53 -124 -133 -174 -179 -50
-46 -99 -91 -108 -99 -97 -90 -348 -270 -540 -387 -203 -123 -509 -280 -598
-306 -76 -23 -185 -17 -247 13 -160 78 -231 242 -200 460 5 40 8 57 36 200 11
58 23 119 25 135 3 17 7 37 10 45 3 8 8 29 11 45 2 17 36 156 74 310 39 154
73 291 75 304 3 14 7 28 10 33 3 4 7 16 9 25 15 78 92 350 107 380 13 26 152
120 188 127 14 2 70 14 125 25 55 11 123 23 150 27 28 3 59 8 70 10 11 2 63 7
115 10 52 4 96 7 97 8 6 5 276 -2 358 -8z m-6156 -354 c341 -173 488 -251 750
-399 191 -108 382 -226 606 -371 72 -46 193 -125 270 -175 122 -80 1143 -761
1690 -1128 162 -109 315 -234 315 -258 0 -3 -44 -18 -97 -33 -54 -15 -137 -38
-184 -52 -144 -43 -248 -55 -419 -52 -85 2 -168 7 -185 10 -45 10 -167 46
-190 55 -87 37 -205 97 -253 128 -53 35 -171 120 -182 133 -3 3 -39 34 -80 70
-41 36 -77 67 -80 70 -22 23 -121 98 -200 152 -133 91 -257 163 -540 310 -58
31 -163 86 -235 123 -168 88 -235 129 -331 202 -44 33 -216 158 -384 278 -424
304 -746 547 -794 599 -33 38 -59 131 -70 251 -4 39 -9 81 -11 95 -18 103 -18
100 23 101 60 1 136 10 142 15 3 3 48 4 100 2 l95 -3 244 -123z m7471 -621
l19 -38 -49 -2 c-49 -1 -49 0 -40 25 28 74 38 76 70 15z m27187 -471 c161 -44
334 -169 439 -317 58 -80 117 -207 146 -313 30 -112 32 -348 5 -450 -47 -171
-100 -272 -207 -393 -102 -116 -549 -372 -1000 -571 -96 -43 -188 -84 -205
-91 -104 -47 -222 -57 -291 -26 -103 47 -139 170 -115 392 6 58 13 114 15 125
2 10 7 44 11 74 4 30 9 62 10 71 2 9 6 33 9 54 12 75 56 257 83 343 15 48 27
89 28 92 1 3 9 22 18 44 9 21 17 41 17 45 0 11 20 55 82 181 95 194 225 372
389 532 203 198 375 261 566 208z m-34842 -2894 c11 -2 32 -5 46 -5 15 -1 74
-33 135 -73 60 -39 210 -134 334 -211 420 -260 541 -348 660 -476 116 -126
177 -220 254 -394 59 -131 122 -385 141 -567 7 -64 7 -343 1 -380 -3 -14 -7
-47 -11 -74 -56 -442 -292 -775 -597 -840 -82 -18 -212 -12 -308 14 -85 23
-103 28 -127 34 -10 3 -52 14 -93 25 -266 70 -324 85 -405 107 -49 14 -133 36
-185 50 -52 14 -133 37 -180 50 -47 14 -116 34 -155 46 -337 97 -614 188 -689
227 -81 41 -176 125 -213 188 -61 104 -80 252 -53 403 11 62 19 90 62 225 10
33 50 186 89 340 109 439 139 540 210 711 68 164 135 270 234 370 125 125 307
211 490 231 28 3 52 7 54 9 6 6 279 -4 306 -10z"/>
<path d="M21057 10423 c-1 0 -51 -4 -112 -8 -110 -6 -124 -7 -225 -20 -130
-15 -242 -53 -282 -95 -18 -19 -55 -88 -87 -161 -16 -38 -110 -302 -113 -319
0 -3 -2 -9 -4 -15 -4 -9 -27 -92 -38 -135 -2 -8 -16 -60 -30 -115 -15 -55 -29
-109 -31 -120 -2 -11 -8 -38 -14 -60 -85 -356 -128 -686 -102 -781 22 -81 87
-146 171 -171 147 -42 444 61 747 260 23 15 44 27 47 27 5 0 140 92 181 124
11 8 54 41 95 72 409 310 821 789 927 1078 72 196 38 301 -112 350 -56 18
-180 44 -240 52 -22 2 -56 6 -75 9 -130 17 -313 26 -528 28 -96 1 -174 1 -175
0z"/>
<path d="M49615 8989 c-54 -21 -132 -79 -195 -146 -64 -69 -150 -170 -150
-178 0 -3 -11 -16 -23 -28 -13 -12 -26 -26 -28 -32 -2 -5 -26 -43 -53 -84
-101 -152 -223 -415 -304 -651 -22 -63 -40 -119 -42 -125 -1 -5 -4 -14 -6 -20
-25 -73 -78 -324 -90 -420 -31 -259 10 -351 162 -357 30 -1 129 9 164 17 96
22 377 144 535 233 33 19 89 50 125 69 36 20 72 42 81 49 8 8 19 14 22 14 11
0 182 112 185 122 2 4 8 8 14 8 6 0 25 12 43 28 17 15 52 43 76 62 214 172
297 333 305 595 8 265 -75 486 -244 653 -147 145 -441 243 -577 191z"/>
<path d="M14750 6113 c-41 -7 -197 -61 -232 -80 -18 -9 -36 -16 -40 -15 -3 1
-12 -5 -18 -13 -7 -8 -17 -15 -22 -15 -20 0 -177 -113 -232 -167 -92 -90 -147
-200 -239 -473 -40 -118 -86 -265 -93 -295 -1 -5 -12 -48 -24 -95 -12 -47 -23
-92 -25 -100 -2 -8 -11 -46 -20 -85 -9 -38 -19 -79 -21 -90 -2 -11 -14 -74
-28 -140 -13 -66 -27 -140 -30 -165 -4 -25 -9 -61 -12 -80 -23 -163 -24 -301
-4 -342 38 -72 230 -190 480 -293 36 -15 79 -33 95 -40 17 -7 71 -27 120 -45
50 -17 97 -35 105 -40 9 -4 63 -22 120 -40 58 -18 144 -45 191 -60 70 -23 125
-40 179 -55 3 -1 25 -7 50 -15 25 -7 50 -14 55 -16 6 -1 72 -18 147 -38 75
-20 152 -38 170 -41 18 -3 41 -8 50 -11 22 -7 57 -13 168 -30 82 -13 284 -11
353 4 234 48 408 214 488 467 23 71 45 163 54 225 3 25 8 52 10 60 22 84 22
478 0 600 -2 14 -7 45 -10 70 -4 25 -13 74 -22 110 -8 36 -16 73 -18 83 -8 40
-49 146 -83 217 -44 89 -98 159 -201 259 -115 111 -433 361 -460 361 -6 0 -11
4 -11 9 0 9 -96 71 -111 71 -5 0 -9 4 -9 8 0 5 -15 16 -32 26 -18 9 -50 27
-70 39 -161 97 -236 139 -322 181 -54 26 -104 49 -110 51 -6 1 -18 5 -26 8
-75 30 -228 45 -310 30z"/>
<path d="M65097 39902 c-10 -37 -24 -92 -32 -123 -33 -121 -82 -379 -73 -379
6 0 42 17 80 37 l70 37 -6 220 c-5 202 -9 263 -19 272 -2 2 -11 -27 -20 -64z"/>
</g>
</svg>
